<?xml version="1.0" encoding="UTF-8"?>
<svg xmlns="http://www.w3.org/2000/svg" width="24" height="24" viewBox="0 0 100 100" fill="none">
  <!-- Top bun -->
  <path d="M72.8,80.7H26.6c-5.9,0-10.7-4.8-10.7-10.7v-6c0-0.8,0.7-1.5,1.5-1.5h0.1c0.6,0,1.2,0.4,1.4,1c0.4,1.3,3.2,2.8,7,2.8c3.3,0,5.6-1.1,6.6-2.1c0.9-1.1,2.3-1.7,3.9-1.7h2.9c1.5,0,2.9,0.6,3.9,1.7c0.9,1.1,3.3,2.1,6.6,2.1c3.2,0,5.6-1.1,6.6-2.1c0.9-1.1,2.3-1.7,3.9-1.7h2.4c1.5,0,2.9,0.6,3.9,1.7c0.9,1.1,3.3,2.1,6.6,2.1c3.7,0,6.5-1.4,6.9-2.8c0.2-0.6,0.8-1,1.4-1H82c0.8,0,1.5,0.7,1.5,1.5v6C83.5,75.9,78.7,80.7,72.8,80.7z" fill="currentColor"/>
  
  <!-- Patty -->
  <path d="M80.3,57.5H19.9c-3.9,0-7.1-3.3-7.1-7.4c0-2,0.7-3.8,2-5.2c1.4-1.4,3.1-2.2,5-2.2h41c0.5,0,1,0.3,1.3,0.7l2.1,3.5l4.6-3.9c0.3-0.2,0.6-0.4,1-0.4h10.5c3.9,0,7.1,3.3,7.1,7.4c0,2-0.7,3.8-2,5.2C84,56.7,82.2,57.5,80.3,57.5z" fill="currentColor"/>
  
  <!-- Bottom bun -->
  <path d="M82,38.9H17.4c-0.8,0-1.5-0.7-1.5-1.5v-1.8c0-9,7.3-16.3,16.3-16.3h34.9c9,0,16.3,7.3,16.3,16.3v1.8C83.5,38.2,82.8,38.9,82,38.9z" fill="currentColor"/>
  
  <!-- Sesame seeds -->
  <path d="M31.6,31.4l3.8-3.8c0.6-0.6,0.6-1.5,0-2.1c-0.6-0.6-1.5-0.6-2.1,0l-3.8,3.8c-0.6,0.6-0.6,1.5,0,2.1c0.3,0.3,0.7,0.4,1.1,0.4C30.9,31.8,31.3,31.6,31.6,31.4z" fill="currentColor"/>
  <path d="M48.9,31.4l3.8-3.8c0.6-0.6,0.6-1.5,0-2.1c-0.6-0.6-1.5-0.6-2.1,0l-3.8,3.8c-0.6,0.6-0.6,1.5,0,2.1c0.3,0.3,0.7,0.4,1.1,0.4C48.2,31.8,48.6,31.6,48.9,31.4z" fill="currentColor"/>
  <path d="M65.6,31.4l3.8-3.8c0.6-0.6,0.6-1.5,0-2.1c-0.6-0.6-1.5-0.6-2.1,0l-3.8,3.8c-0.6,0.6-0.6,1.5,0,2.1c0.3,0.3,0.7,0.4,1.1,0.4C64.9,31.8,65.3,31.6,65.6,31.4z" fill="currentColor"/>
</svg>