<?xml version="1.0" encoding="iso-8859-1"?>
<!-- Uploaded to: SVG Repo, www.svgrepo.com, Generator: SVG Repo Mixer Tools -->
<svg fill="#000000" height="800px" width="800px" version="1.1" id="Layer_1" xmlns="http://www.w3.org/2000/svg" xmlns:xlink="http://www.w3.org/1999/xlink" 
	 viewBox="0 0 512 512" xml:space="preserve">
<g>
	<g>
		<g>
			<path d="M485.683,170.667h-24.166c-12.16,0-22.05,9.89-22.05,22.05v3.55h-34.992c-3.964-19.451-21.203-34.133-41.808-34.133
				V36.617C362.667,16.427,346.24,0,326.05,0H40.883C20.693,0,4.267,16.427,4.267,36.617v438.767
				c0,20.19,16.427,36.617,36.617,36.617H326.05c20.19,0,36.617-16.427,36.617-36.617V247.467c20.605,0,37.844-14.682,41.808-34.133
				H448c4.71,0,8.533-3.823,8.533-8.533v-12.083c0-2.748,2.236-4.983,4.983-4.983h24.166c2.748,0,4.983,2.236,4.983,4.983v58.308
				c0,2.739-2.236,4.975-4.983,4.975h-24.166c-2.748,0-4.983-2.236-4.983-4.975v-12.092c0-4.71-3.823-8.533-8.533-8.533
				s-8.533,3.823-8.533,8.533v12.092c0,12.151,9.89,22.042,22.05,22.042h24.166c12.16,0,22.05-9.89,22.05-22.042v-58.308
				C507.733,180.557,497.843,170.667,485.683,170.667z M345.6,475.383c0,10.778-8.772,19.55-19.55,19.55H40.883
				c-10.778,0-19.55-8.772-19.55-19.55V36.617c0-10.778,8.772-19.55,19.55-19.55H326.05c10.778,0,19.55,8.772,19.55,19.55v125.517
				h-17.067V70.75c0-20.19-16.427-36.617-36.617-36.617h-216.9C54.827,34.133,38.4,50.56,38.4,70.75v125.517
				c0,0.889,0.137,1.746,0.39,2.552c-0.259,1.984-0.39,3.984-0.39,5.981v236.45c0,20.19,16.427,36.617,36.617,36.617h216.9
				c20.19,0,36.617-16.427,36.617-36.617V247.467H345.6V475.383z M294.205,162.133c-3.524-78.078-55.036-92.958-57.311-93.568
				c-1.459-0.393-2.995-0.393-4.454,0c-1.771,0.475-33.394,9.601-48.973,50.473c-15.579-40.872-47.202-49.998-48.973-50.473
				c-1.459-0.393-2.995-0.393-4.454,0c-2.281,0.612-54.103,15.572-57.347,94.266c-6.704,1.136-12.458,3.621-17.226,7.065V70.75
				c0-10.778,8.772-19.55,19.55-19.55h216.9c10.778,0,19.55,8.772,19.55,19.55v91.383H294.205z M251.733,341.333
				c4.71,0,8.533,3.823,8.533,8.533s-3.823,8.533-8.533,8.533c-32.939,0-59.733,26.795-59.733,59.733
				c0,4.71-3.823,8.533-8.533,8.533c-4.71,0-8.533-3.823-8.533-8.533C174.933,375.791,209.391,341.333,251.733,341.333z
				 M200.533,315.733c0-18.825,15.309-34.133,34.133-34.133c4.71,0,8.533,3.823,8.533,8.533s-3.823,8.533-8.533,8.533
				c-9.412,0-17.067,7.654-17.067,17.067c0,4.71-3.823,8.533-8.533,8.533S200.533,320.444,200.533,315.733z M268.8,384
				c4.71,0,8.533,3.823,8.533,8.533c0,4.71-3.823,8.533-8.533,8.533c-9.412,0-17.067,7.654-17.067,17.067
				c0,4.71-3.823,8.533-8.533,8.533c-4.71,0-8.533-3.823-8.533-8.533C234.667,399.309,249.975,384,268.8,384z M166.4,324.267
				c-4.71,0-8.533-3.823-8.533-8.533c0-9.412-7.654-17.067-17.067-17.067c-4.71,0-8.533-3.823-8.533-8.533s3.823-8.533,8.533-8.533
				c18.825,0,34.133,15.309,34.133,34.133C174.933,320.444,171.11,324.267,166.4,324.267z M157.867,366.933
				c0,4.71-3.823,8.533-8.533,8.533s-8.533-3.823-8.533-8.533c0-9.412-7.654-17.067-17.067-17.067c-4.71,0-8.533-3.823-8.533-8.533
				c0-4.71,3.823-8.533,8.533-8.533C142.558,332.8,157.867,348.109,157.867,366.933z M140.8,418.133c0,4.71-3.823,8.533-8.533,8.533
				c-4.71,0-8.533-3.823-8.533-8.533c0-9.412-7.654-17.067-17.067-17.067c-4.71,0-8.533-3.823-8.533-8.533
				c0-4.71,3.823-8.533,8.533-8.533C125.491,384,140.8,399.309,140.8,418.133z M89.811,162.133
				c2.846-56.463,33.707-72.798,42.447-76.297c8.82,3.54,39.62,19.897,42.464,76.297H89.811z M277.122,162.133h-84.911
				c2.846-56.463,33.707-72.798,42.447-76.297C243.478,89.376,274.278,105.734,277.122,162.133z M362.667,230.4H115.183
				c5.359-7.134,8.55-16,8.55-25.6c0-9.6-3.191-18.466-8.55-25.6h247.484c14.114,0,25.6,11.486,25.6,25.6
				S376.781,230.4,362.667,230.4z"/>
			<circle cx="132.267" cy="128" r="8.533"/>
			<circle cx="234.667" cy="128" r="8.533"/>
		</g>
	</g>
</g>
</svg>